<?xml version="1.0" encoding="utf-8"?>
<!-- Generator: Adobe Illustrator 26.0.2, SVG Export Plug-In . SVG Version: 6.00 Build 0)  -->
<svg version="1.1" id="Layer_1" xmlns="http://www.w3.org/2000/svg" xmlns:xlink="http://www.w3.org/1999/xlink" x="0px" y="0px"
	 viewBox="0 0 249.5 24.6" style="enable-background:new 0 0 249.5 24.6;" xml:space="preserve">
<style type="text/css">
	.st0{fill:#FFFFFF;}
</style>
<path class="st0" d="M0.5,9.7c0.1-1.6,1.1-3,2.5-3.8c1.6-0.7,3.3-1,5-0.9c6.7,0,6.7,3.5,6.7,5.1v7.7c-0.1,0.6,0.1,1.3,0.5,1.8H9.7
	v-1.1c-1.3,1-3,1.5-4.6,1.5C1.6,20,0,17.8,0,15.4c0-1.1,0.4-2.2,1.2-3c1.3-1.4,2.8-1.6,5.3-2c1-0.1,2-0.3,3-0.6c0-1-0.3-1.6-1.9-1.6
	C6.3,8.2,6,8.5,5.8,9.5L0.5,9.7z M7.8,13.5c-0.5,0.1-1,0.2-1.4,0.4c-1.1,0.4-1.2,1.1-1.2,1.2c0,0.4,0.3,1.1,1.4,1.1s2.1-0.6,2.6-1.6
	c0.2-0.5,0.3-1.1,0.3-1.6C8.9,13.1,8.3,13.3,7.8,13.5z"/>
<path class="st0" d="M17.1,4.3c-0.1-1.1,0.3-2.2,1-3C18.6,0.9,19.7,0,22.3,0c1,0,2,0.1,2.9,0.3v3.8c-0.3-0.1-0.7-0.2-1-0.2
	c-1.5,0-1.5,1-1.5,1.8h2.5v3h-2.6v10.7H17V8.8h-2v-3h2.1V4.3z"/>
<path class="st0" d="M27.5,1.3h5.6v4.4h2.4v3H33v5.4c0,0.6,0,1.5,1.5,1.5c0.3,0,0.7,0,1-0.1v3.8c-1.2,0.2-2.3,0.3-3.5,0.3
	c-1.3,0.1-2.7-0.3-3.7-1.2c-0.7-0.8-1-1.9-1-2.9l0.1-6.8h-2v-3h2L27.5,1.3z"/>
<path class="st0" d="M50.5,16.2c-1.6,2.5-4.5,4-7.5,3.9c-4,0.2-7.5-2.9-7.8-6.9c0-0.3,0-0.5,0-0.8c0-4.5,3.2-7.5,7.7-7.5
	C45,4.8,47,5.6,48.6,7c2.1,2,2.1,4.4,2.2,6.5H41c-0.1,0.7,0.2,1.5,0.7,2c0.4,0.4,1.1,0.7,1.7,0.7c1.1,0,2.2-0.7,2.5-1.8L50.5,16.2z
	 M45.1,10.5c0-0.2,0-0.4-0.1-0.7c-0.2-0.9-1-1.5-1.9-1.4c-1.7,0-2,1.5-2.1,2.1H45.1z"/>
<path class="st0" d="M57.2,6.7c1.5-1.4,2.5-1.5,4.7-1.5v4.7c-0.4,0-0.8-0.1-1.2-0.1c-3.3,0-3.3,2.1-3.4,3.1v6.6h-5.5V5.4h5.4V6.7z"
	/>
<path class="st0" d="M67.7,7.3c0.5-0.7,1.5-2.2,4.6-2.2c1.4-0.1,2.8,0.4,3.8,1.3c1,1.2,1.5,2.7,1.4,4.2v8.9H72v-7.6
	c0-0.7,0-2.1-1.9-2.1s-2,1.5-2,2.3v7.5h-5.6V5.4h5.3L67.7,7.3z"/>
<path class="st0" d="M92.2,6.9c1.4,1.5,2.2,3.5,2.2,5.6c0,4.4-3.1,7.5-8.4,7.5c-5.7,0-8-3.7-8-7.5c0-4.6,3.1-7.8,8.3-7.7
	C88.5,4.7,90.6,5.5,92.2,6.9z M83.6,12.4c0,1.4,0.3,3.7,2.6,3.7c1.9,0,2.6-1.7,2.6-3.8c0-0.8-0.1-3.7-2.6-3.6
	C84.1,8.9,83.6,10.9,83.6,12.4L83.6,12.4z"/>
<path class="st0" d="M108.9,6.9c1.5,1.5,2.2,3.5,2.2,5.6c0,4.4-3.1,7.5-8.4,7.5c-5.7,0-8-3.7-8-7.5c0-4.6,3.1-7.8,8.3-7.7
	C105.2,4.8,107.3,5.5,108.9,6.9z M100.3,12.4c0,1.4,0.3,3.7,2.6,3.7c2,0,2.6-1.7,2.6-3.8c0-0.8,0-3.7-2.6-3.6
	C100.8,8.9,100.3,10.9,100.3,12.4L100.3,12.4z"/>
<path class="st0" d="M116.9,7.3c0.5-0.7,1.5-2.2,4.6-2.2c1.4-0.1,2.7,0.4,3.8,1.3c1,1.2,1.5,2.7,1.4,4.2v8.9h-5.6v-7.6
	c0-0.7,0-2.1-1.9-2.1s-2,1.5-2,2.3v7.5h-5.6V5.4h5.3C116.9,5.4,116.9,7.3,116.9,7.3z"/>
<path class="st0" d="M127.7,9.7c0.1-1.6,1.1-3,2.5-3.8c1.6-0.7,3.3-1,5-0.9c6.7,0,6.7,3.4,6.7,5.1v7.7c-0.1,0.6,0.1,1.3,0.5,1.8
	h-5.5v-1.1c-1.3,1-3,1.5-4.6,1.5c-3.5,0-5.1-2.1-5.1-4.5c0-1.1,0.4-2.2,1.2-3c1.3-1.3,2.8-1.5,5.3-1.8c1-0.1,2-0.3,3-0.6
	c0-1-0.3-1.6-1.9-1.6c-1.3,0-1.6,0.3-1.8,1.3L127.7,9.7z M134.9,13.5c-0.5,0.1-1,0.2-1.4,0.4c-1.1,0.4-1.1,1.1-1.1,1.2
	c0,0.4,0.3,1.1,1.4,1.1c1.1,0,2.1-0.6,2.6-1.6c0.2-0.5,0.3-1.1,0.3-1.6C136,13.2,135.5,13.3,134.9,13.5L134.9,13.5z"/>
<path class="st0" d="M145.4,14.4c0.6,0.6,1.3,1.1,2.1,1.4c0.7,0.3,1.5,0.5,2.2,0.5s1.5-0.2,1.5-0.9c0-0.6-0.8-0.8-1.4-0.9
	c-1-0.2-2-0.4-2.9-0.7c-1.3-0.4-3.9-1.1-3.9-4.1c0-1.2,0.5-2.4,1.4-3.2c1.4-1.2,3.2-1.7,5-1.6c1.1,0,2.1,0.1,3.2,0.4
	c1.3,0.3,2.5,0.8,3.5,1.6l-3,2.8c-1.1-0.8-2.3-1.2-3.6-1.3c-0.2,0-1.2,0-1.2,0.7c0,0.5,0.4,0.6,2.2,1.1c1.3,0.2,2.6,0.6,3.8,1.1
	c1.4,0.7,2.2,2.1,2.2,3.7c0,2.8-2.3,5.2-6.7,5.2c-2.8,0-5.5-1-7.5-2.8L145.4,14.4z"/>
<path class="st0" d="M159.3,14.4c0.6,0.6,1.3,1.1,2.1,1.4c0.7,0.3,1.5,0.5,2.2,0.5s1.5-0.2,1.5-0.9c0-0.6-0.9-0.8-1.4-0.9
	c-1-0.2-2-0.4-2.9-0.7c-1.3-0.4-3.9-1.1-3.9-4.1c0-1.2,0.5-2.4,1.4-3.2c1.4-1.1,3.2-1.7,5-1.6c1.1,0,2.1,0.1,3.2,0.4
	c1.3,0.3,2.4,0.8,3.5,1.6l-3,2.8c-1.1-0.8-2.3-1.2-3.6-1.3c-0.2,0-1.2,0-1.2,0.7c0,0.5,0.4,0.6,2.2,1.1c1.3,0.2,2.6,0.6,3.8,1.1
	c1.4,0.7,2.3,2.2,2.2,3.7c0,2.8-2.3,5.2-6.7,5.2c-2.8,0-5.5-1-7.5-2.8L159.3,14.4z"/>
<path class="st0" d="M185.6,16.2c-1.6,2.5-4.5,4-7.5,3.9c-4,0.2-7.5-2.9-7.8-6.9c0-0.3,0-0.5,0-0.8c0-4.5,3.2-7.5,7.7-7.5
	c2.1-0.1,4.1,0.7,5.6,2.1c2.1,2,2.1,4.4,2.1,6.5h-9.8c-0.1,0.7,0.2,1.5,0.7,2c0.4,0.4,1.1,0.7,1.7,0.7c1.1,0,2.2-0.7,2.6-1.8
	L185.6,16.2z M180.2,10.5c0-0.2,0-0.4-0.1-0.7c-0.2-0.9-1-1.5-1.9-1.4c-1.1,0-2.1,0.9-2.1,2.1H180.2z"/>
<path class="st0" d="M191.8,7.5c0.9-1.6,2.6-2.5,4.4-2.4c0.7,0,1.4,0.1,2.1,0.3c1.2,0.3,2.2,1.2,2.7,2.3c0.4-0.9,1.7-2.6,4.9-2.6
	c1.4-0.1,2.8,0.5,3.9,1.4c1,1.1,1.5,2.6,1.3,4.1v8.9h-5.6v-7.4c0-0.9,0-2.4-2-2.4c-1.1-0.1-2,0.7-2.1,1.8c0,0.2,0,0.3,0,0.5v7.5
	h-5.6v-7.6c0-0.3,0-0.5-0.1-0.8c-0.2-0.9-1-1.4-1.9-1.4c-1.1-0.1-2,0.8-2,1.8c0,0.1,0,0.2,0,0.3v7.7h-5.6v-14h5.4L191.8,7.5z"/>
<path class="st0" d="M217.6,0.3v6.1c0.9-1,2.2-1.5,3.6-1.4c3.1,0,6.1,2.2,6.1,7.1c0,4.4-2.3,7.7-6.4,7.7c-0.7,0-1.4-0.1-2.1-0.4
	c-0.6-0.2-1.1-0.5-1.4-1v1H212V0.3H217.6z M221.8,12.4c0-0.6,0-1.1-0.1-1.6c-0.2-1-1-1.7-2-1.8c-0.5,0-1,0.2-1.4,0.6
	c-0.6,0.8-0.8,1.8-0.8,2.8c0,0.6,0,1.2,0.2,1.7c0.2,1,1,1.7,2,1.6c0.5,0,1-0.2,1.4-0.6C221.6,14.4,221.9,13.4,221.8,12.4z"/>
<path class="st0" d="M227.9,0.3h5.6v19.2h-5.6V0.3z"/>
<path class="st0" d="M233.8,5.4h5.8l1.4,6.1c0.3,1.6,0.4,2,0.6,4.1c0.1-1.4,0.4-2.9,0.7-4.3l1.4-5.9h5.8l-5.1,14.9
	c-0.3,1.1-0.9,2.2-1.6,3.1c-1.2,1.2-2.2,1.2-3.9,1.2c-1,0-2,0-3-0.2v-4c0.5,0,1.1,0.1,1.6,0.1c0.8,0,1.2-0.2,1.2-0.7
	c-0.1-0.5-0.2-1-0.4-1.4L233.8,5.4z"/>
</svg>
