<svg xmlns="http://www.w3.org/2000/svg" viewBox="0 0 999.56 448.84"><defs><style>.a{fill:#fff;}</style></defs><path class="a" d="M154.64,69A128.68,128.68,0,0,1,267,134.9V.06H42.26V134.9A128.7,128.7,0,0,1,154.64,69Z" transform="translate(-0.2 -0.06)"/><path class="a" d="M3.28,230.2c1.37-7.53,3.25-16.94,15.91-23.61,9.92-5.13,22.58-6,31.82-6,42.08,0,42.08,21.73,42.08,32.33v48.25c0,5.81.52,7.35,3.08,10.95H61.45v-6.85c-4.45,3.08-12.66,8.9-29.26,8.9-22.24,0-32-13.52-32-28.57a26,26,0,0,1,7.53-19c8-8.21,17.62-9.58,33.19-11.63,9.75-1.37,13.51-2.23,18.81-3.77-.17-6-1.88-10.09-12-10.09-8,0-10.26,2.05-11.46,8.21Zm45.85,24.12c-2.91.68-6,1.37-9.07,2.39-6.84,2.74-7.18,6.85-7.18,7.87,0,2.4,2,6.85,8.72,6.85,5,0,13.17-3.25,16.25-10.1,1.71-3.76,1.71-7.35,1.71-10.43C56.14,252.09,52.72,253.29,49.13,254.32Z" transform="translate(-0.2 -0.06)"/><path class="a" d="M108,196.67c.35-6.67.52-13.18,6.51-19,2.73-2.91,9.75-8.38,26.17-8.38,7.7,0,12.32,1,18.48,2.22v24.12a16.45,16.45,0,0,0-6.51-1.2c-9.58,0-9.4,6.5-9.4,11.12h15.91v19.16H143.22v67.41H108V224.72H94.8V205.56H108Z" transform="translate(-0.2 -0.06)"/><path class="a" d="M173.19,177.68H208.6l-.34,27.88h15.22v19.16H208.09l-.35,34c0,3.42.17,9.23,9.58,9.23a39.9,39.9,0,0,0,6.33-.68v24.12a169,169,0,0,1-22.24,1.88c-3.76,0-16.25-.17-23.26-7.35-6-6-6-13.86-6-18.31l.51-42.94H160.53V205.56h12.31Z" transform="translate(-0.2 -0.06)"/><path class="a" d="M318.6,271.43c-10.44,15.91-25.83,24.29-47.05,24.29-32.84,0-48.92-23.61-48.92-48.24,0-28.92,20-47.56,48.75-47.56,10.78,0,24.81,2.73,35.59,13.17,13,12.83,13.17,27.54,13.51,41.06H258.55c.17,3.93.34,8.55,4.28,12.49.85.85,4.1,4.1,10.61,4.1,8,0,12.48-4.27,16.08-11.46Zm-34-35.93a35.62,35.62,0,0,0-.52-4.1,11.83,11.83,0,0,0-11.8-9.07c-10.61,0-12.49,9.24-13.35,13.17Z" transform="translate(-0.2 -0.06)"/><path class="a" d="M360.51,211.21c9.58-8.56,16.08-9.58,29.59-9.58V231.4c-2.39-.18-4.79-.35-7.18-.35-20.7,0-21,13.52-21.21,19.33v41.75H326.64V203h33.87Z" transform="translate(-0.2 -0.06)"/><path class="a" d="M426.88,215.31c2.91-4.1,9.58-14,29.09-14,14,0,21,5.47,23.95,8.21,8.38,8.21,8.89,20,8.89,26.69v55.94H453.57V243.71c0-4.45-.17-13.34-12-13.34-12.49,0-12.84,9.75-12.84,14.54v47.22H393.52V203.51h33.36Z" transform="translate(-0.2 -0.06)"/><path class="a" d="M581.36,212.58c8.38,8,13.86,21.38,13.86,35.41,0,27.88-19.33,47.56-52.86,47.56-35.76,0-50.47-23.27-50.47-47.05,0-29.08,19.67-48.92,52.35-48.75C562.2,199.92,574.52,206.08,581.36,212.58ZM527,247.48c0,8.55,2,23.43,16.42,23.43,12.32,0,16.25-10.43,16.25-23.78,0-5.3-.34-23.09-16.42-22.58C529.87,224.89,527,237.55,527,247.48Z" transform="translate(-0.2 -0.06)"/><path class="a" d="M686.74,212.58c8.38,8,13.86,21.38,13.86,35.41,0,27.88-19.33,47.56-52.87,47.56-35.75,0-50.46-23.27-50.46-47.05,0-29.08,19.67-48.92,52.35-48.75C667.58,199.92,679.9,206.08,686.74,212.58Zm-54.4,34.9c0,8.55,2,23.43,16.42,23.43,12.32,0,16.25-10.43,16.25-23.78,0-5.3-.34-23.09-16.42-22.58C635.25,224.89,632.34,237.55,632.34,247.48Z" transform="translate(-0.2 -0.06)"/><path class="a" d="M736.52,215.31c2.91-4.1,9.58-14,29.08-14,14,0,21,5.47,23.95,8.21,8.39,8.21,8.9,20,8.9,26.69v55.94H763.21V243.71c0-4.45-.17-13.34-12-13.34-12.49,0-12.83,9.75-12.83,14.54v47.22H703.16V203.51h33.36Z" transform="translate(-0.2 -0.06)"/><path class="a" d="M232,355c1.37-7.53,3.25-16.94,15.91-23.61,9.92-5.13,22.58-6,31.82-6,42.08,0,42.08,21.73,42.08,32.33V406c0,5.81.51,7.35,3.08,10.95H290.16v-6.85c-4.45,3.08-12.66,8.9-29.25,8.9-22.24,0-32-13.52-32-28.57a26,26,0,0,1,7.52-19c8-8.21,17.63-9.58,33.19-11.63,9.75-1.37,13.52-2.23,18.82-3.77-.17-6-1.88-10.09-12-10.09-8,0-10.27,2.05-11.47,8.21Zm45.84,24.12c-2.9.68-6,1.37-9.06,2.39-6.85,2.74-7.19,6.85-7.19,7.87,0,2.4,2.06,6.84,8.73,6.84,5,0,13.17-3.25,16.25-10.09,1.71-3.76,1.71-7.35,1.71-10.43C284.86,376.88,281.44,378.08,277.84,379.11Z" transform="translate(-0.2 -0.06)"/><path class="a" d="M343.53,384.58a37.5,37.5,0,0,0,13.35,9.07,36.59,36.59,0,0,0,14,2.91c4.27,0,9.23-1.54,9.23-5.48,0-4.44-5.3-5.3-8.89-5.81a150.88,150.88,0,0,1-18.48-4.11c-8.21-2.39-24.46-7.18-24.46-26A28.35,28.35,0,0,1,337.2,335c10.44-9.92,25.49-10.26,31.31-10.26a89,89,0,0,1,20,2.39c12.14,2.91,17.27,6.67,22.24,10.44l-19,17.28c-6-3.77-13.35-8.39-22.76-8.39-1.37,0-7.52,0-7.52,4.62,0,3.25,2.39,3.77,14.2,6.67,15.73,3.6,19.5,4.45,23.77,6.68a25.28,25.28,0,0,1,13.86,23.09c0,17.45-14.54,32.85-42.08,32.85-25.32,0-39.86-11.64-47.39-17.8Z" transform="translate(-0.2 -0.06)"/><path class="a" d="M431.12,384.58a37.54,37.54,0,0,0,13.34,9.07,36.59,36.59,0,0,0,14,2.91c4.28,0,9.24-1.54,9.24-5.48,0-4.44-5.3-5.3-8.9-5.81a151.24,151.24,0,0,1-18.47-4.11c-8.21-2.39-24.46-7.18-24.46-26A28.35,28.35,0,0,1,424.79,335c10.44-9.92,25.49-10.26,31.31-10.26a88.81,88.81,0,0,1,20,2.39c12.15,2.91,17.28,6.67,22.24,10.44l-19,17.28c-6-3.77-13.34-8.39-22.75-8.39-1.37,0-7.53,0-7.53,4.62,0,3.25,2.4,3.77,14.2,6.67,15.74,3.6,19.51,4.45,23.78,6.68a25.28,25.28,0,0,1,13.86,23.09c0,17.45-14.54,32.85-42.09,32.85-25.31,0-39.86-11.64-47.38-17.8Z" transform="translate(-0.2 -0.06)"/><path class="a" d="M597.06,396.21c-10.44,15.92-25.83,24.3-47,24.3-32.84,0-48.92-23.61-48.92-48.24,0-28.92,20-47.56,48.75-47.56,10.78,0,24.81,2.73,35.59,13.17,13,12.83,13.17,27.54,13.51,41.06H537c.17,3.93.34,8.55,4.28,12.49.86.85,4.1,4.1,10.61,4.1,8,0,12.48-4.28,16.08-11.46Zm-34-35.92a36.07,36.07,0,0,0-.52-4.11,11.82,11.82,0,0,0-11.8-9.06c-10.61,0-12.49,9.23-13.35,13.17Z" transform="translate(-0.2 -0.06)"/><path class="a" d="M636.23,341.13c2.74-4.45,8.73-14.88,28.06-14.88a46,46,0,0,1,13.51,2.05c11.46,3.59,14.89,9.92,17.28,14.54,2.57-5.82,10.61-16.59,30.79-16.59,9.58,0,18.82,3.08,24.64,8.89,8,7.87,8.21,17.45,8.38,25.83v55.95H723.65V370.55c0-5.64-.17-15.22-12.32-15.22-12.83,0-13,10.43-13,14.37v47.39H663.09v-47.9a26.27,26.27,0,0,0-.51-5.14c-1.54-6.84-7.53-8.72-11.81-8.72a13.63,13.63,0,0,0-9.58,3.59c-3.25,3.25-3.25,6.84-3.42,9.92v48.25H602.53V328.47h33.7Z" transform="translate(-0.2 -0.06)"/><path class="a" d="M798.41,296.14v38.32c3.42-3.25,9.24-8.73,22.58-8.73,19.33,0,38.66,13.86,38.66,44.82,0,27.89-14.54,48.59-40,48.59a37.12,37.12,0,0,1-13.17-2.22,19.23,19.23,0,0,1-9.07-6.51v6.51H763.17V296.14Zm26.51,76.3a47.13,47.13,0,0,0-1-10.44c-3.08-11.12-11.46-11.12-12.66-11.12a12.91,12.91,0,0,0-8.9,3.94c-4.62,5-4.79,12.83-4.79,17.45a37.58,37.58,0,0,0,1.2,10.94c2.74,9.41,9.92,10.44,12.32,10.44a12.14,12.14,0,0,0,8.89-3.76C822.36,387.32,824.92,382.53,824.92,372.44Z" transform="translate(-0.2 -0.06)"/><path class="a" d="M863.24,296.14h35.42V416.92H863.24Z" transform="translate(-0.2 -0.06)"/><path class="a" d="M900.37,328.3h36.78l8.72,38.15c1.88,10.43,2.4,12.83,4.11,26a232.7,232.7,0,0,1,4.27-27l8.9-37.12h36.61l-32.33,93.75c-2.4,6.67-4.79,13.85-10.44,19.33-7.53,7.36-13.68,7.53-24.63,7.53a128.9,128.9,0,0,1-18.65-1.2V422.56c2.91.17,6.67.51,9.92.51,4.79,0,7.53-1,7.53-4.27,0-1.54-2-7-2.74-9.07Z" transform="translate(-0.2 -0.06)"/></svg>